<svg height="512" viewBox="0 0 64 64" width="512" xmlns="http://www.w3.org/2000/svg"><g id="Filled_outline" data-name="Filled outline"><path d="m7 57h6v4h-6z" fill="#394d5c"/><path d="m31 57h6v4h-6z" fill="#394d5c"/><path d="m3 45h38v12h-38z" fill="#aabece"/><g fill="#394d5c"><path d="m8 41h4v4h-4z"/><path d="m20 41h4v4h-4z"/><path d="m32 41h4v4h-4z"/></g><path d="m31 38a3 3 0 0 1 -6 0c0-1.657 3-4 3-4s3 2.343 3 4z" fill="#e97424"/><path d="m19 38a3 3 0 0 1 -6 0c0-1.657 3-4 3-4s3 2.343 3 4z" fill="#e97424"/><path d="m49 26h-9.6l1.6-4h-38l2.572 8.575a2 2 0 0 0 1.916 1.425h28.158a2 2 0 0 0 1.854-1.257l.3-.743h11.2z" fill="#394d5c"/><path d="m49 26h12v4h-12z" fill="#ad6327"/><circle cx="22" cy="51" fill="#f4f4e6" r="4"/><path d="m21 47h2v8h-2z" fill="#b11e48"/><path d="m6 52h2v2h-2z" fill="#f4f4e6"/><path d="m10 52h4v2h-4z" fill="#f4f4e6"/><path d="m3 58h3v3a1 1 0 0 0 1 1h6a1 1 0 0 0 1-1v-3h16v3a1 1 0 0 0 1 1h6a1 1 0 0 0 1-1v-3h3a1 1 0 0 0 1-1v-12a1 1 0 0 0 -1-1h-4v-3a1 1 0 0 0 -1-1h-4a1 1 0 0 0 -1 1v3h-6v-3a1 1 0 0 0 -1-1h-4a1 1 0 0 0 -1 1v3h-6v-3a1 1 0 0 0 -1-1h-4a1 1 0 0 0 -1 1v3h-4a1 1 0 0 0 -1 1v12a1 1 0 0 0 1 1zm9 2h-4v-2h4zm24 0h-4v-2h4zm-3-18h2v2h-2zm-12 0h2v2h-2zm-12 0h2v2h-2zm-5 4h36v10h-36z"/><path d="m23 2h-2a4.066 4.066 0 0 1 -.846 2.466 5.978 5.978 0 0 0 -1.154 3.534 4.118 4.118 0 0 0 1.265 3.178 2.175 2.175 0 0 1 .735 1.822 4.072 4.072 0 0 1 -.845 2.466 5.966 5.966 0 0 0 -1.155 3.534h2a4.072 4.072 0 0 1 .845-2.466 5.966 5.966 0 0 0 1.155-3.534 4.118 4.118 0 0 0 -1.265-3.178 2.175 2.175 0 0 1 -.735-1.822 4.066 4.066 0 0 1 .846-2.466 5.978 5.978 0 0 0 1.154-3.534z"/><path d="m12 5h-2a2.865 2.865 0 0 1 -.8 1.9 4.793 4.793 0 0 0 -1.2 3.1 4.79 4.79 0 0 0 1.2 3.1 2.865 2.865 0 0 1 .8 1.9 2.865 2.865 0 0 1 -.8 1.9 4.79 4.79 0 0 0 -1.2 3.1h2a2.865 2.865 0 0 1 .8-1.9 4.6 4.6 0 0 0 0-6.2 2.865 2.865 0 0 1 -.8-1.9 2.865 2.865 0 0 1 .8-1.9 4.793 4.793 0 0 0 1.2-3.1z"/><path d="m34 5h-2a2.865 2.865 0 0 1 -.8 1.9 4.793 4.793 0 0 0 -1.2 3.1 4.79 4.79 0 0 0 1.2 3.1 2.865 2.865 0 0 1 .8 1.9 2.865 2.865 0 0 1 -.8 1.9 4.79 4.79 0 0 0 -1.2 3.1h2a2.865 2.865 0 0 1 .8-1.9 4.6 4.6 0 0 0 0-6.2 2.865 2.865 0 0 1 -.8-1.9 2.865 2.865 0 0 1 .8-1.9 4.793 4.793 0 0 0 1.2-3.1z"/><path d="m28 42a4 4 0 0 0 4-4c0-2.041-2.819-4.347-3.384-4.788a1 1 0 0 0 -1.232 0c-.565.441-3.384 2.747-3.384 4.788a4 4 0 0 0 4 4zm0-6.694c1.051.945 2 2.111 2 2.694a2 2 0 0 1 -4 0c0-.583.949-1.749 2-2.694z"/><path d="m16 42a4 4 0 0 0 4-4c0-2.041-2.819-4.347-3.384-4.788a1 1 0 0 0 -1.232 0c-.565.441-3.384 2.747-3.384 4.788a4 4 0 0 0 4 4zm0-6.694c1.051.945 2 2.111 2 2.694a2 2 0 0 1 -4 0c0-.583.949-1.749 2-2.694z"/><path d="m61 25h-20.123l1.052-2.628a1 1 0 0 0 -.929-1.372h-38a1 1 0 0 0 -.958 1.287l2.572 8.575a2.982 2.982 0 0 0 2.874 2.138h28.158a2.987 2.987 0 0 0 2.786-1.886l.045-.114h22.523a1 1 0 0 0 1-1v-4a1 1 0 0 0 -1-1zm-13 4h-10.2a1 1 0 0 0 -.929.629l-.3.742a.994.994 0 0 1 -.928.629h-28.155a1 1 0 0 1 -.958-.712l-2.186-7.288h35.179l-1.052 2.628a1 1 0 0 0 .929 1.372h8.6zm12 0h-10v-2h10z"/><path d="m17 51a5 5 0 1 0 5-5 5.006 5.006 0 0 0 -5 5zm6-2.816a2.982 2.982 0 0 1 0 5.632zm-2 0v5.632a2.982 2.982 0 0 1 0-5.632z"/><path d="m36 52h2v-3a1 1 0 0 0 -1-1h-3v2h2z"/><path d="m30 48h2v2h-2z"/><path d="m8 27h5v2h-5z"/><path d="m15 27h2v2h-2z"/><path d="m6 52h2v2h-2z"/><path d="m10 52h4v2h-4z"/></g></svg>