<svg id="Filledoutline" height="512" viewBox="0 0 512 512" width="512" xmlns="http://www.w3.org/2000/svg"><path d="m144 216h-8a24 24 0 0 1 -24-24 24 24 0 0 1 24-24h240a24 24 0 0 1 24 24 24 24 0 0 1 -24 24z" fill="#e99180"/><path d="m279.122 336h-46.244a88.878 88.878 0 0 1 -67.478-31.037 88.876 88.876 0 0 1 -21.4-57.841v-141.846a65.276 65.276 0 0 1 65.276-65.276h93.448a65.276 65.276 0 0 1 65.276 65.276v141.846a88.876 88.876 0 0 1 -21.4 57.841 88.878 88.878 0 0 1 -67.478 31.037z" fill="#f8caa8"/><path d="m368 144h-48a48 48 0 0 1 -48-48v48h-8a48 48 0 0 1 -48-48 48 48 0 0 1 -48 48h-24v-38.72a65.28 65.28 0 0 1 65.28-65.28h93.44a65.28 65.28 0 0 1 65.28 65.28z" fill="#4e4e4f"/><path d="m367.446 456.905-56.729-153.169a60.881 60.881 0 0 0 -57.091-39.736 60.881 60.881 0 0 0 -54.453 33.654l-63.173 126.346 28.262 6.594a21.172 21.172 0 0 0 20.085-5.956 21.174 21.174 0 0 1 35.2 7.5l.556 1.549a21.174 21.174 0 0 0 15.116 13.46l32.967 7.693a18.123 18.123 0 0 0 18.864-7.115 18.121 18.121 0 0 1 30.719 1.976l6.358 11.868a18.121 18.121 0 0 0 11.856 9.09l16.032 3.741a13.245 13.245 0 0 0 15.431-17.495z" fill="#0093b8"/><path d="m248 232h8a16.019 16.019 0 0 0 16-16v-8a8 8 0 0 0 -16 0v8h-8a8 8 0 0 0 0 16z"/><path d="m193.344 212.438a8 8 0 0 0 11.094 2.218l24-16a8 8 0 0 0 0-13.312l-24-16a8 8 0 1 0 -8.876 13.312l14.016 9.344-14.016 9.344a8 8 0 0 0 -2.218 11.094z"/><path d="m283.562 198.656 24 16a8 8 0 0 0 8.876-13.312l-14.016-9.344 14.016-9.344a8 8 0 0 0 -8.876-13.312l-24 16a8 8 0 0 0 0 13.312z"/><path d="m329.023 330.128a96.748 96.748 0 0 0 46.977-83.008v-23.12a32 32 0 0 0 0-64v-54.72a73.363 73.363 0 0 0 -73.28-73.28h-93.44a73.363 73.363 0 0 0 -73.28 73.28v54.72a32 32 0 0 0 0 64v23.12a96.829 96.829 0 0 0 40.213 78.566l-47.368 94.736a8 8 0 0 0 5.337 11.369l28.263 6.6a29.307 29.307 0 0 0 27.674-8.208 13.173 13.173 0 0 1 21.9 4.67l.556 1.548a29.064 29.064 0 0 0 20.825 18.541l32.967 7.693a26.043 26.043 0 0 0 27.192-10.256 10.121 10.121 0 0 1 17.158 1.1l6.358 11.869a26.129 26.129 0 0 0 17.09 13.1l16.031 3.74a21.244 21.244 0 0 0 24.75-28.067zm62.977-138.128a16.019 16.019 0 0 1 -16 16v-32a16.019 16.019 0 0 1 16 16zm-182.72-144h93.44a57.345 57.345 0 0 1 57.28 57.28v30.72h-40a40.045 40.045 0 0 1 -40-40 8 8 0 0 0 -16 0v40a40.045 40.045 0 0 1 -40-40 8 8 0 0 0 -16 0 40 40 0 0 1 -40 40h-16v-30.72a57.345 57.345 0 0 1 57.28-57.28zm-89.28 144a16.019 16.019 0 0 1 16-16v32a16.019 16.019 0 0 1 -16-16zm51.477 107.757a80.816 80.816 0 0 1 -19.477-52.637v-95.12h16a56.036 56.036 0 0 0 48.01-27.163 56.02 56.02 0 0 0 47.99 27.163h8a8 8 0 0 0 8-8v-8.846a55.833 55.833 0 0 0 40 16.846h40v95.12a80.821 80.821 0 0 1 -36.648 67.7l-5.133-13.859a68.88 68.88 0 0 0 -126.2-6.882l-8.535 17.069a80.118 80.118 0 0 1 -12.007-11.391zm187.483 165.217a5.129 5.129 0 0 1 -5.127 1.638l-16.03-3.74a10.124 10.124 0 0 1 -6.623-5.076l-6.358-11.868a25.961 25.961 0 0 0 -13.52-12.006l-7.364-58.914-15.876 1.984 7 56.024a25.96 25.96 0 0 0 -14.524 10.063 10.087 10.087 0 0 1 -10.536 3.974l-32.967-7.693a13.123 13.123 0 0 1 -9.405-8.375l-.556-1.547a28.96 28.96 0 0 0 -18.366-17.848l7.208-50.458-15.838-2.264-7.442 52.088a29.072 29.072 0 0 0 -14.063 8.142 13.228 13.228 0 0 1 -12.5 3.706l-18.392-4.291 58.64-117.281a52.881 52.881 0 0 1 96.887 5.283l56.729 153.169a5.132 5.132 0 0 1 -.977 5.29z"/><path d="m244 303.867h16v120.266h-16z" transform="matrix(.998 -.067 .067 .998 -23.655 17.569)"/><path d="m380 336.941h16v118.118h-16z" transform="matrix(.906 -.423 .423 .906 -131.055 201.214)"/><path d="m56.941 380h118.119v16h-118.119z" transform="matrix(.474 -.88 .88 .474 -280.618 306.184)"/><path d="m104 312h16v16h-16z"/><path d="m120 448h16v16h-16z"/><path d="m224 472h16v16h-16z"/><path d="m384 304h16v16h-16z"/><path d="m424 376h16v16h-16z"/><path d="m416 472h16v16h-16z"/><path d="m64 376h16v16h-16z"/></svg>