<svg id="Layer_1" enable-background="new 0 0 512.002 512.002" height="512" viewBox="0 0 512.002 512.002" width="512" xmlns="http://www.w3.org/2000/svg"><g><g clip-rule="evenodd" fill-rule="evenodd"><path d="m256.001 70c44.075 0 84.323 7.535 114.983 19.955-14.595-47.309-61.542-79.955-114.983-79.955s-100.387 32.646-114.983 79.955c30.66-12.42 70.908-19.955 114.983-19.955z" fill="#ffc144"/><path d="m370.984 89.955c-30.659-12.42-70.907-19.955-114.983-19.955-44.075 0-84.323 7.535-114.983 19.955-36.187 14.66-59.017 36.127-59.017 60.045 0 16.646 11.293 32.877 32.306 46.432 4.435-3.993 10.294-6.431 16.695-6.431h5c3.278 0 6.637-.299 10-.936v-9.063c0-32.502 20.71-50 44.804-59.373 24.147-9.394 51.694-10.628 65.196-10.628 13.503 0 41.049 1.234 65.197 10.628 24.094 9.373 44.804 26.87 44.804 59.373v9.063c3.363.637 6.722.936 10 .936h5c6.4 0 12.26 2.438 16.694 6.431 21.013-13.555 32.306-29.786 32.306-46.432-.002-23.918-22.831-45.385-59.019-60.045z" fill="#ffc144"/><path d="m146.001 189.066c22.317-4.226 44.804-23.314 44.804-68.436-24.094 9.373-44.804 26.87-44.804 59.373z" fill="#8690af"/><path d="m321.198 120.629c0 45.123 22.487 64.21 44.804 68.436v-9.063c-.001-32.502-20.71-50-44.804-59.373z" fill="#8690af"/><path d="m366.001 189.066c-22.317-4.226-44.804-23.314-44.804-68.436-24.147-9.394-51.694-10.628-65.197-10.628-13.502 0-41.049 1.234-65.196 10.628 0 45.123-22.487 64.21-44.804 68.436v50.936c74.832 0 73.168-27.031 110-27.031s35.168 27.031 110 27.031v-50.936z" fill="#efb789"/><path d="m146.001 240.001v-50.935c-3.363.637-6.722.936-10 .936h-5c-6.401 0-12.26 2.438-16.695 6.431-5.092 4.585-8.306 11.22-8.306 18.569 0 13.75 11.25 25 25 25z" fill="#efb789"/><path d="m256.001 212.97c-36.832 0-35.168 27.031-110 27.031 0 60.5 49.5 110 110 110s110-49.5 110-110c-74.832 0-73.168-27.031-110-27.031z" fill="#fff"/><path d="m366.001 189.066v50.936h15c13.75 0 25-11.25 25-25 0-7.349-3.214-13.984-8.306-18.569-4.434-3.993-10.294-6.431-16.694-6.431h-5c-3.277 0-6.636-.3-10-.936z" fill="#efb789"/><path d="m296.001 343.618v-1.188c-12.412 4.885-25.908 7.571-40 7.571s-27.588-2.686-40-7.571v1.188 31.46l40 41.506 40-41.506z" fill="#efb789"/><path d="m225.202 441.298 30.799-24.714-40-41.506-23.085 24.342 8.576 60.903z" fill="#ff5d7d"/><path d="m256.001 416.584 30.8 24.714 23.71 19.025 8.576-60.903-23.086-24.342z" fill="#ff5d7d"/><path d="m446 502.002v-30c0-32.999-27.569-53.902-60-60l-66.914-12.582-8.576 60.904-54.51-43.739c-18.714 15.016-36.019 28.902-54.51 43.739l-8.576-60.904-66.914 12.582c-32.431 6.098-59.999 27-59.999 60v30z" fill="#ff7d97"/></g><g><path d="m226.004 190.002c0-5.523-4.477-10-10-10h-.007c-5.523 0-9.997 4.477-9.997 10s4.481 10 10.004 10 10-4.477 10-10z"/><path d="m296.007 200.002c5.522 0 10-4.477 10-10s-4.478-10-10-10h-.008c-5.522 0-9.996 4.477-9.996 10s4.481 10 10.004 10z"/><path d="m256.001 268.719c12.049 0 18.589 2.87 27.642 6.843 7.802 3.424 17.513 7.685 32.434 10.529.633.121 1.262.179 1.883.179 4.706 0 8.899-3.337 9.813-8.129 1.034-5.425-2.525-10.662-7.951-11.696-12.699-2.42-20.549-5.866-28.141-9.197-9.994-4.386-19.435-8.529-35.679-8.529s-25.685 4.143-35.679 8.528c-7.592 3.332-15.442 6.777-28.142 9.197-5.425 1.034-8.985 6.271-7.951 11.696s6.269 8.987 11.696 7.951c14.921-2.844 24.631-7.105 32.434-10.529 9.052-3.973 15.592-6.843 27.641-6.843z"/><path d="m275.443 315.715c5.202 1.858 10.924-.851 12.782-6.052s-.851-10.923-6.052-12.782c-7.834-2.799-15.282-4.664-26.172-4.664-10.889 0-18.338 1.864-26.172 4.664-5.201 1.858-7.911 7.581-6.052 12.782 1.461 4.089 5.31 6.638 9.417 6.638 1.116 0 2.252-.189 3.364-.586 5.158-1.843 10.527-3.498 19.443-3.498 8.917.001 14.285 1.655 19.442 3.498z"/><path d="m387.848 402.174-63.732-11.984-18.114-19.1v-22.015c38.397-17.672 65.929-55.034 69.58-99.073h5.42c19.299 0 34.999-15.701 34.999-35 0-5.919-1.482-11.497-4.087-16.39 18.409-14.292 28.088-30.972 28.088-48.611 0-27.013-22.843-51.133-61.022-67.613-8.441-23.744-24.32-44.099-46.105-58.978-22.424-15.315-49.006-23.41-76.874-23.41-27.867 0-54.45 8.095-76.874 23.41-21.786 14.879-37.664 35.234-46.105 58.978-38.178 16.48-61.021 40.6-61.021 67.613 0 17.64 9.679 34.319 28.087 48.61-2.605 4.893-4.087 10.471-4.087 16.39 0 19.299 15.701 35 35 35h5.42c3.651 44.039 31.182 81.402 69.58 99.074v22.015l-18.114 19.1-63.733 11.984c-41.4 7.785-68.151 35.194-68.151 69.828v30c0 5.523 4.477 10 10 10h379.997c5.522 0 10-4.477 10-10v-30c0-34.634-26.751-62.043-68.152-69.828zm-251.846 18.123 48.472-9.115 7.116 50.536c.501 3.56 2.875 6.577 6.218 7.902 1.192.473 2.441.704 3.683.704 2.241 0 4.456-.753 6.26-2.201l38.251-30.693v54.573h-110zm130 17.133 38.25 30.693c2.805 2.251 6.603 2.822 9.943 1.497 3.343-1.325 5.717-4.342 6.218-7.902l7.116-50.536 48.472 9.115v71.705h-109.999zm42.51-34.629-5.452 38.722-32.259-25.885 25.143-26.09zm-152.511-206.027c8.973-3.001 17.113-8.03 23.828-14.883 12.636-12.897 19.6-31.096 20.778-54.131 20.699-6.689 43.183-7.757 55.394-7.757s34.694 1.068 55.392 7.756c1.183 23.107 8.186 41.343 20.888 54.242 6.693 6.796 14.795 11.789 23.721 14.774v33.048c-34.146-1.246-48.522-8.878-61.32-15.684-10.8-5.743-21.001-11.167-38.68-11.167-17.68 0-27.88 5.424-38.681 11.167-12.799 6.806-27.174 14.438-61.319 15.684v-33.049zm.213-21.862c1.316-16.016 8.987-28.417 23.283-37.53-3.264 19.64-12.34 31.482-23.283 37.53zm176.29-37.532c14.296 9.112 21.968 21.513 23.285 37.526-10.939-6.048-20.021-17.885-23.285-37.526zm48.498 92.621h-5v-30h5c8.271 0 14.999 6.729 14.999 15s-6.729 15-14.999 15zm-168.705-147.378c5.482-.671 9.381-5.66 8.709-11.142s-5.659-9.387-11.142-8.709c-18.245 2.236-35.162 5.695-50.451 10.179 18.806-31.926 55.961-52.951 96.588-52.951s77.783 21.025 96.588 52.95c-15.291-4.485-32.211-7.944-50.459-10.18-5.477-.669-10.47 3.227-11.142 8.71-.672 5.482 3.228 10.47 8.71 11.142 69.708 8.54 120.303 36.876 120.303 67.379 0 14.393-11.349 26.218-22.27 34.266-4.973-2.718-10.674-4.265-16.73-4.265h-5c0-31.943-17.728-55.709-51.266-68.727-25.272-9.809-53.912-11.274-68.735-11.274s-43.462 1.465-68.734 11.274c-33.538 13.018-51.266 36.784-51.266 68.727h-5c-6.056 0-11.757 1.547-16.73 4.265-10.922-8.049-22.27-19.873-22.27-34.266.001-30.501 50.593-58.837 120.297-67.378zm-96.296 132.378c0-8.271 6.729-15 15-15h5v30h-5c-8.271 0-15-6.729-15-15zm40.482 34.811c38.944-1.398 56.178-10.545 70.228-18.016 9.636-5.124 16.598-8.826 29.291-8.826s19.655 3.702 29.291 8.826c14.05 7.471 31.284 16.618 70.228 18.016-4.946 50.552-47.689 90.189-99.519 90.189s-94.573-39.636-99.519-90.189zm99.518 110.189c10.355 0 20.408-1.319 30-3.797v14.839l-30 31.13-30-31.13v-14.839c9.592 2.478 19.645 3.797 30 3.797zm-39.942 29.548 25.143 26.089-32.259 25.885-5.452-38.722zm-140.057 82.453c0-25.114 19.018-40.181 40-47.121v67.121h-40zm359.998 20h-39.999v-67.121c20.982 6.94 39.999 22.007 39.999 47.121z"/><path d="m256.001 80c5.523 0 10-4.477 10-10s-4.477-10-10-10h-.007c-5.523 0-9.996 4.477-9.996 10s4.48 10 10.003 10z"/></g></g></svg>