<svg height="512" viewBox="0 0 64 64" width="512" xmlns="http://www.w3.org/2000/svg"><g id="virus-covid19-travel-coronavirus-warning"><rect fill="#006df0" height="36" rx="2" width="58" x="3" y="21"/><path d="m59 21h-2v1a32 32 0 0 1 -32 32h-22v1a2 2 0 0 0 2 2h54a2 2 0 0 0 2-2v-32a2 2 0 0 0 -2-2z" fill="#0062d8"/><path d="m49 33h4v24h-4z" fill="#ff9811"/><path d="m54.383 21-3.309-6-10.074 18h8 4 8z" fill="#ed1c24"/><path d="m11 57h-1v2a2 2 0 0 0 2 2h2a2 2 0 0 0 2-2v-2z" fill="#414042"/><path d="m49 57h-1v2a2 2 0 0 0 2 2h2a2 2 0 0 0 2-2v-2z" fill="#414042"/><path d="m11 21h4v36h-4z" fill="#ff9811"/><path d="m24 13h16v8h4v-8a4 4 0 0 0 -4-4h-16a4 4 0 0 0 -4 4v8h4z" fill="#58595b"/><path d="m19 27h8v4h-8z" fill="#5eac24"/><circle cx="24" cy="39" fill="#d1d3d4" r="3"/><path d="m39 41h4v4h-4z" fill="#ff9811"/><path d="m35 44.757-1.414 2.829-2.829 1.414 2.829 1.414 1.414 2.829 1.414-2.829 2.829-1.414-2.829-1.414z" fill="#ed1c24"/><circle cx="55" cy="7" fill="#ab2300" r="2"/><circle cx="9" cy="7" fill="#ab2300" r="2"/><g fill="#231f20"><path d="m5 8h1.184a2.746 2.746 0 0 0 .117.285l-.836.837a1 1 0 1 0 1.414 1.414l.836-.836a2.746 2.746 0 0 0 .285.116v1.184a1 1 0 0 0 2 0v-1.184a2.746 2.746 0 0 0 .285-.117l.836.837a1 1 0 0 0 1.414-1.414l-.835-.837a2.746 2.746 0 0 0 .116-.285h1.184a1 1 0 0 0 0-2h-1.184a2.746 2.746 0 0 0 -.117-.285l.836-.837a1 1 0 0 0 -1.414-1.414l-.836.837a2.746 2.746 0 0 0 -.285-.117v-1.184a1 1 0 0 0 -2 0v1.184a2.746 2.746 0 0 0 -.285.117l-.836-.837a1 1 0 0 0 -1.414 1.414l.836.837a2.746 2.746 0 0 0 -.117.285h-1.184a1 1 0 0 0 0 2zm5-1a1 1 0 1 1 -1-1 1 1 0 0 1 1 1z"/><path d="m51 8h1.184a2.746 2.746 0 0 0 .117.285l-.836.837a1 1 0 1 0 1.414 1.414l.836-.837a2.746 2.746 0 0 0 .285.117v1.184a1 1 0 0 0 2 0v-1.184a2.746 2.746 0 0 0 .285-.117l.836.837a1 1 0 1 0 1.414-1.414l-.835-.837a2.746 2.746 0 0 0 .116-.285h1.184a1 1 0 0 0 0-2h-1.184a2.746 2.746 0 0 0 -.117-.285l.836-.837a1 1 0 1 0 -1.414-1.414l-.836.837a2.746 2.746 0 0 0 -.285-.117v-1.184a1 1 0 0 0 -2 0v1.184a2.746 2.746 0 0 0 -.285.117l-.836-.837a1 1 0 1 0 -1.414 1.414l.836.837a2.746 2.746 0 0 0 -.117.285h-1.184a1 1 0 0 0 0 2zm5-1a1 1 0 1 1 -1-1 1 1 0 0 1 1 1z"/><path d="m59 20h-4.03l-3.02-5.48a1 1 0 0 0 -.87-.52h-.01a1.013 1.013 0 0 0 -.87.51l-3.07 5.49h-2.13v-7a5 5 0 0 0 -5-5h-16a5 5 0 0 0 -5 5v7h-14a3.009 3.009 0 0 0 -3 3v32a3.009 3.009 0 0 0 3 3h4v1a3.009 3.009 0 0 0 3 3h2a3.009 3.009 0 0 0 3-3v-1h30v1a3.009 3.009 0 0 0 3 3h2a3.009 3.009 0 0 0 3-3v-1h4a3.009 3.009 0 0 0 3-3v-32a3.009 3.009 0 0 0 -3-3zm-47 2h2v34h-2zm-2 34h-5a1 1 0 0 1 -1-1v-32a1 1 0 0 1 1-1h5zm5 3a1 1 0 0 1 -1 1h-2a1 1 0 0 1 -1-1v-1h4zm36.07-41.94 8.24 14.94h-16.6zm.93 16.94v22h-2v-22zm-31-21a3.009 3.009 0 0 1 3-3h16a3.009 3.009 0 0 1 3 3v7h-2v-7a1 1 0 0 0 -1-1h-16a1 1 0 0 0 -1 1v7h-2zm18 1v6h-14v-6zm9 42h-32v-34h30.01l-5.88 10.51a.994.994 0 0 0 .01 1 1.012 1.012 0 0 0 .86.49h7zm5 3a1 1 0 0 1 -1 1h-2a1 1 0 0 1 -1-1v-1h4zm7-4a1 1 0 0 1 -1 1h-5v-22h6zm0-25.88-3.92-7.12h2.92a1 1 0 0 1 1 1z"/><path d="m51 27a1 1 0 0 0 1-1v-4a1 1 0 0 0 -2 0v4a1 1 0 0 0 1 1z"/><path d="m51 31a1 1 0 0 0 1-1v-1a1 1 0 0 0 -2 0v1a1 1 0 0 0 1 1z"/><path d="m27 26h-8a1 1 0 0 0 -1 1v4a1 1 0 0 0 1 1h8a1 1 0 0 0 1-1v-4a1 1 0 0 0 -1-1zm-1 4h-6v-2h6z"/><path d="m24 35a4 4 0 1 0 4 4 4 4 0 0 0 -4-4zm0 6a2 2 0 1 1 2-2 2 2 0 0 1 -2 2z"/><path d="m38 41v4a1 1 0 0 0 1 1h4a1 1 0 0 0 1-1v-4a1 1 0 0 0 -1-1h-4a1 1 0 0 0 -1 1zm2 1h2v2h-2z"/><path d="m39.689 48.105-2.53-1.264-1.259-2.531a1.042 1.042 0 0 0 -1.79 0l-1.264 2.531-2.53 1.264a1 1 0 0 0 0 1.79l2.53 1.264 1.254 2.531a1 1 0 0 0 1.79 0l1.264-2.531 2.53-1.264a1 1 0 0 0 0-1.79zm-3.722 1.415a.987.987 0 0 0 -.447.447l-.52 1.039-.52-1.039a.987.987 0 0 0 -.447-.447l-1.039-.52 1.039-.52a.987.987 0 0 0 .447-.447l.52-1.039.52 1.039a.987.987 0 0 0 .447.447l1.039.52z"/></g></g></svg>