<?xml version="1.0"?>
<svg xmlns="http://www.w3.org/2000/svg" viewBox="0 0 64 64" width="512" height="512"><g id="Filled_outline" data-name="Filled outline"><path d="M55,48V34H31l-6,1L15,39H11v9h0a3,3,0,0,0-3,3H8a3,3,0,0,0,3,3H55a3,3,0,0,0,3-3h0a3,3,0,0,0-3-3Z" style="fill:#2d75bb"/><path d="M25,20V40a3,3,0,0,0,3,3h0a3,3,0,0,0,3-3V34H41a2,2,0,0,0-1.973,2.336A2.075,2.075,0,0,0,41.107,38H51V28c0-3.658-2.353-5.719-6-6Z" style="fill:#f9bb4b"/><path d="M59,40V34a4,4,0,0,0-4-4H51v4h4v6a4,4,0,0,0,4,4h2Z" style="fill:#66342e"/><path d="M25,20H15a4,4,0,0,0-4,4v5H6v6a4,4,0,0,0,4,4h5l10-4Z" style="fill:#f9bb4b"/><circle cx="6" cy="29" r="3" style="fill:#394d5c"/><path d="M25.039,36h0c-2.123,0-3.262-1.893-3-4l1-12H25l2.055.2L28.037,32C28.3,34.107,27.162,36,25.039,36Z" style="fill:#66342e"/><path d="M43,24V21.8L31,20.6V28a2,2,0,0,0,4,0V24a2,2,0,0,1,4,0,2,2,0,0,0,4,0Z" style="fill:#66342e"/><path d="M5,32.858V35a5.006,5.006,0,0,0,5,5v7.125A4,4,0,0,0,11,55H55a4,4,0,0,0,1-7.875V43.974A4.948,4.948,0,0,0,59,45h2a1,1,0,0,0,.9-1.447L60,39.764V34a5.006,5.006,0,0,0-5-5H52V28c0-4.049-2.588-6.665-6.9-7L25,19H15a5.006,5.006,0,0,0-5,5v4H9.858A3.992,3.992,0,1,0,5,32.858ZM52,31h3a3,3,0,0,1,3,3v6a1,1,0,0,0,.1.447L59.382,43H59a3,3,0,0,1-3-3V34a1,1,0,0,0-1-1H52Zm-1,8a1,1,0,0,0,1-1V35h2V47H40v2H55a2,2,0,0,1,0,4H11a2,2,0,0,1,0-4H28V47H12V40h3a1,1,0,0,0,.371-.071l8.1-3.241a3.91,3.91,0,0,0,.528.168V40a4,4,0,0,0,8,0V35h6.173a3.013,3.013,0,0,0-.13,1.5A3.083,3.083,0,0,0,41.11,39Zm-9-16.3V24a1,1,0,0,1-2,0,2.969,2.969,0,0,0-.438-1.539Zm-10-1,2.793.279A2.978,2.978,0,0,0,34,24v4a1,1,0,0,1-2,0ZM29.033,31.917l-.882-10.6L30,21.505V28a3,3,0,0,0,6,0V24a1,1,0,0,1,2,0,3,3,0,0,0,6,0V22.905l.924.092c1.9.146,5.076.988,5.076,5v9H41.11a1.083,1.083,0,0,1-1.093-.825A1,1,0,0,1,41,35h6V33H43.444c-.573-.678-1.309-1.846-1.008-2.565C42.576,30.1,43.392,29,48,29V27c-4.243,0-6.668.874-7.413,2.671A3.831,3.831,0,0,0,41.014,33H31a1,1,0,0,0-1,1v6a2,2,0,0,1-4,0V36.879a3.76,3.76,0,0,0,1.978-1.167A4.823,4.823,0,0,0,29.033,31.917Zm-6,.166L23.957,21h.992l1.178.118.918,11.006a2.879,2.879,0,0,1-.566,2.265,1.837,1.837,0,0,1-1.44.611h0a1.834,1.834,0,0,1-1.439-.611A2.916,2.916,0,0,1,23.033,32.083ZM9.858,30H11a1,1,0,0,0,1-1V24a3,3,0,0,1,3-3h6.951l-.906,10.876a5,5,0,0,0,.713,3.344L14.808,38H12.091c.225-1.461,1.029-4,3.909-4V32c-4.151,0-5.63,3.5-5.936,6H10a3,3,0,0,1-3-3V32.858A4,4,0,0,0,9.858,30ZM6,27a2,2,0,1,1-2,2A2,2,0,0,1,6,27Z"/><path d="M19,28V26a5.443,5.443,0,0,1-4.168-2.555l-1.664,1.11A7.442,7.442,0,0,0,19,28Z"/><rect x="15" y="28" width="2" height="2"/><rect x="36" y="47" width="2" height="2"/><path d="M38,11a4.128,4.128,0,0,1-1.938-.419,6.69,6.69,0,0,0-5.454,0,4.7,4.7,0,0,1-3.88,0A6.067,6.067,0,0,0,24,10v2a4.134,4.134,0,0,1,1.94.419,6.695,6.695,0,0,0,5.456,0,4.694,4.694,0,0,1,3.877,0A6.069,6.069,0,0,0,38,13Z"/><path d="M31.336,14a6.067,6.067,0,0,0-2.728.581,4.7,4.7,0,0,1-3.88,0A6.067,6.067,0,0,0,22,14v2a4.134,4.134,0,0,1,1.94.419A6.067,6.067,0,0,0,26.668,17a6.067,6.067,0,0,0,2.728-.581,4.694,4.694,0,0,1,3.877,0A6.069,6.069,0,0,0,36,17V15a4.128,4.128,0,0,1-1.938-.419A6.061,6.061,0,0,0,31.336,14Z"/></g></svg>
